<?xml version="1.0" encoding="UTF-8"?>
<svg width="26px" height="32px" viewBox="0 0 26 32" version="1.1" xmlns="http://www.w3.org/2000/svg" xmlns:xlink="http://www.w3.org/1999/xlink">
    <title>pin with "a"</title>
    <g id="Checkout-Ingresses" stroke="none" stroke-width="1" fill="none" fill-rule="evenodd">
        <g id="Group-16-Copy" transform="translate(-112.000000, -418.000000)">
            <g id="a-pin-copy" transform="translate(112.000000, 418.000000)">
                <path d="M13,0.4 C16.4733005,0.4 19.6224858,1.83160787 21.9035434,4.14214374 C24.1863712,6.45447269 25.6,9.6470902 25.6,13.168 C25.6,19.1006782 20.723491,23.8553752 16.438089,27.945958 C16.2042306,28.1691963 15.9328941,28.4501097 15.6689912,28.7235189 C15.4452487,28.9553211 15.2270079,29.1815605 15.0366855,29.3661293 L15.0366855,29.3661293 L12.9999928,31.4304695 L10.9574906,29.3603463 C10.8160354,29.2227361 10.5718082,28.9718337 10.3199816,28.7132463 C10.0321519,28.4176891 9.73462195,28.1123342 9.56348776,27.9474714 C5.24050089,23.7754199 0.4,19.1712847 0.4,13.168 C0.4,9.6470902 1.8136288,6.45447269 4.0964566,4.14214374 C6.37751417,1.83160787 9.52669951,0.4 13,0.4 Z" id="icon-/-location-copy-2" stroke="#E55D16" stroke-width="0.8" fill="#FF8F00"></path>
                <path d="M15.6275897,18.8372 C14.9703781,18.2648843 14.8526268,18.0003845 14.4939845,17.4552721 C13.407879,18.6149699 12.639103,18.962963 11.2330734,18.962963 C9.56779137,18.962963 8.27272727,17.8850843 8.27272727,15.7305827 C8.27272727,14.0471166 9.14209069,12.9024853 10.3818716,12.3414695 C11.4548049,11.8474156 12.9538382,11.7576447 14.1006155,11.6226745 L14.1006155,11.3533618 C14.1006155,10.8593079 14.1379367,10.2763202 13.8605227,9.84964681 C13.6196316,9.46796353 13.1570089,9.31081214 12.7502682,9.31081214 C11.9958619,9.31081214 11.3248794,9.71593211 11.1606264,10.5558864 C11.1262989,10.7429615 10.9961738,10.9279439 10.8169524,10.9375697 L8.90000212,10.719734 C8.73794447,10.6812309 8.55792478,10.5454236 8.60462612,10.285946 C9.0450956,7.84769289 11.1452589,7.11111111 13.0276822,7.11111111 C13.9898495,7.11111111 15.2479916,7.38021457 16.006589,8.14358113 C16.9685568,9.08628025 16.8763516,10.3434914 16.8763516,11.7130731 L16.8763516,14.9433609 C16.8763516,15.9155651 17.2611387,16.3416107 17.6225752,16.8649604 C17.7485091,17.054128 17.777448,17.2782414 17.6163882,17.4163505 C17.212242,17.7714582 16.494159,18.4249653 16.099393,18.7936747 C15.9642784,18.9121137 15.7750781,18.9202747 15.6275897,18.8372 Z M14.1006155,13.7328139 C14.1006155,14.5411705 14.1191763,15.2141384 13.7307968,15.9327241 C13.4164608,16.5159211 12.9167166,16.8754233 12.3614895,16.8754233 C11.6032913,16.8754233 11.1588302,16.2692081 11.1588302,15.3712898 C11.1588302,13.6049583 12.6702373,13.2839593 14.1006155,13.2839593 L14.1006155,13.7328139 L14.1006155,13.7328139 Z" id="Fill-11-Copy" fill="#FFFFFF"></path>
            </g>
        </g>
    </g>
</svg>